<svg xmlns="http://www.w3.org/2000/svg" version="1.1" xmlns:xlink="http://www.w3.org/1999/xlink" xmlns:svgjs="http://svgjs.dev/svgjs" viewBox="0 0 14.243406940022357 4.1826177489108645"><g transform="matrix(0.7314673162822773,0,0,0.7314673162822773,6.154104574650136,1.2286863074820291)"><g transform="matrix(1,0,0,1,0,0)" clip-path="url(#SvgjsClipPath93860)"><g clip-path="url(#SvgjsClipPath9385866aed91d-c8b4-4d90-b30a-8a2a76a38dec)"><path d=" M -2.1058628533274493 0.46244063082409914 L -2.7127056353040095 -0.14425352446081874 L -3.079739250315304 0.22285440389629724 L -2.1058628533274493 1.1967308008841524 L -2.1058628533274493 2.502862167038944 L -1.5868584461116395 2.502862167038944 L -1.5868584461116395 1.7158838347916041 L -1.5868584461116395 0.9815193513857297 L -2.1058628533274493 0.46244063082409914 Z" fill="#4e888f" transform="matrix(1,0,0,1,0,0)" fill-rule="nonzero"></path></g><g clip-path="url(#SvgjsClipPath9385866aed91d-c8b4-4d90-b30a-8a2a76a38dec)"><path d=" M -3.3065435817618463 0.4604341704869246 L -3.909447756409879 -0.14239569081528677 L -3.909447756409879 -0.14239569081528677 L -4.511980364328805 0.4604341704869246 L -5.031133398236257 0.9794385777027339 L -5.031133398236257 1.7138773744544296 L -5.031133398236257 2.5008557067017696 L -4.511980364328805 2.5008557067017696 L -4.511980364328805 1.194575713855335 L -3.909447756409879 0.5918944792447663 L -3.909447756409879 0.5918944792447663 L -3.3065435817618463 1.194575713855335 L -3.3065435817618463 2.5008557067017696 L -2.7874648612002155 2.5008557067017696 L -2.7874648612002155 1.7138773744544296 L -2.7874648612002155 0.9794385777027339 L -3.3065435817618463 0.4604341704869246 Z" fill="#4e888f" transform="matrix(1,0,0,1,0,0)" fill-rule="nonzero"></path></g><g clip-path="url(#SvgjsClipPath9385866aed91d-c8b4-4d90-b30a-8a2a76a38dec)"><path d=" M -0.9191530339074525 0.46244063082409914 L -1.5259215025381914 -0.14425352446081874 L -1.8930294308953073 0.22285440389629724 L -0.9191530339074525 1.1967308008841524 L -0.9191530339074525 2.502862167038944 L -0.40000000000000036 2.502862167038944 L -0.40000000000000036 1.7158838347916041 L -0.40000000000000036 0.9815193513857297 L -0.9191530339074525 0.46244063082409914 Z" fill="#4e888f" transform="matrix(1,0,0,1,0,0)" fill-rule="nonzero"></path></g><g clip-path="url(#SvgjsClipPath9385866aed91d-c8b4-4d90-b30a-8a2a76a38dec)"><path d=" M -4.850106087815623 -0.14239569081528677 L -4.850106087815623 0.6412385408700954 L -4.33095305390817 0.12208550696264353 L -4.33095305390817 -0.14239569081528677 L -4.850106087815623 -0.14239569081528677 Z" fill="#4e888f" transform="matrix(1,0,0,1,0,0)" fill-rule="nonzero"></path></g></g><g><path d=" M 0.026009033203125 0.020533447265624893 L 0.38876660156250004 0.020533447265624893 L 0.646119140625 1.872650390625 L 0.661177001953125 1.872650390625 L 0.9198984375 0.020533447265624893 L 1.281287109375 0.020533447265624893 L 0.855560302734375 2.358608642578125 L 0.450366943359375 2.358608642578125 L 0.026009033203125 0.020533447265624893 M 1.5057861328125002 0.020533447265624893 L 1.8603303222656251 0.020533447265624893 L 1.8603303222656251 2.358608642578125 L 1.5057861328125002 2.358608642578125 L 1.5057861328125002 0.020533447265624893 M 2.16833203125 1.8849704589843752 Q 2.16833203125 1.8096811523437502 2.1772298583984373 1.7460274658203128 Q 2.186127685546875 1.6823737792968751 2.20392333984375 1.608453369140625 L 2.479071533203125 1.608453369140625 L 2.479071533203125 1.7220717773437502 Q 2.479071533203125 1.8165256347656251 2.4907071533203125 1.8890771484375002 Q 2.5023427734375 1.9616286621093753 2.5290362548828123 2.0115933837890627 Q 2.555729736328125 2.06155810546875 2.6002188720703123 2.0868826904296878 Q 2.6447080078125 2.112207275390625 2.709046142578125 2.112207275390625 Q 2.810344482421875 2.112207275390625 2.8637314453125002 2.056766967773438 Q 2.917118408203125 2.0013266601562503 2.917118408203125 1.8945527343750002 Q 2.917118408203125 1.8397968750000002 2.9095894775390625 1.7939388427734375 Q 2.902060546875 1.7480808105468753 2.8835804443359376 1.7029072265625 Q 2.8651003417968752 1.6577336425781253 2.83361572265625 1.6077689208984376 Q 2.802131103515625 1.5578041992187501 2.752850830078125 1.4962038574218752 L 2.383248779296875 1.0567880859375 Q 2.284688232421875 0.930849609375 2.23130126953125 0.8028577880859376 Q 2.177914306640625 0.674865966796875 2.177914306640625 0.5297629394531251 Q 2.177914306640625 0.4134067382812501 2.2141900634765626 0.31621508789062514 Q 2.2504658203125 0.2190234375000002 2.31891064453125 0.14852526855468762 Q 2.38735546875 0.07802709960937504 2.4879693603515625 0.03901354980468774 Q 2.588583251953125 0 2.715890625 0 Q 2.870575927734375 0 2.9739276123046876 0.04380468750000022 Q 3.077279296875 0.08760937499999999 3.1388796386718747 0.15879199218750006 Q 3.2004799804687503 0.22997460937500014 3.225804565429687 0.3182684326171876 Q 3.251129150390625 0.4065622558593751 3.251129150390625 0.4955405273437501 Q 3.251129150390625 0.5708298339843751 3.2394935302734376 0.6344835205078125 Q 3.22785791015625 0.6981372070312502 3.212800048828125 0.7747954101562502 L 2.939020751953125 0.7747954101562502 L 2.939020751953125 0.6639147949218751 Q 2.939020751953125 0.4777448730468752 2.8856337890625 0.37849987792968753 Q 2.832246826171875 0.2792548828125003 2.711783935546875 0.2792548828125003 Q 2.6118544921874998 0.2792548828125003 2.56257421875 0.33469519042968754 Q 2.5132939453125 0.3901354980468752 2.5132939453125 0.48322045898437516 Q 2.5132939453125 0.5325007324218751 2.5208228759765623 0.5721987304687501 Q 2.528351806640625 0.6118967285156252 2.5427252197265626 0.6454346923828127 Q 2.5570986328125 0.67897265625 2.577632080078125 0.7104572753906251 Q 2.59816552734375 0.7419418945312501 2.624174560546875 0.7761643066406252 L 3.0362124023437502 1.274442626953125 Q 3.1484619140625 1.4209145507812502 3.208693359375 1.5557508544921876 Q 3.2689248046875 1.690587158203125 3.2689248046875 1.8411657714843752 Q 3.2689248046875 1.9657353515625002 3.2299112548828126 2.065664794921875 Q 3.1908977050781253 2.1655942382812503 3.11834619140625 2.2354079589843754 Q 3.045794677734375 2.3052216796875 2.94312744140625 2.3428663330078128 Q 2.840460205078125 2.380510986328125 2.711783935546875 2.380510986328125 Q 2.552991943359375 2.380510986328125 2.4482713623046877 2.3380751953125003 Q 2.34355078125 2.295639404296875 2.2812659912109376 2.22582568359375 Q 2.218981201171875 2.1560119628906254 2.1936566162109377 2.0670336914062504 Q 2.16833203125 1.9780554199218752 2.16833203125 1.8849704589843752 M 3.565975341796875 0.020533447265624893 L 3.92051953125 0.020533447265624893 L 3.92051953125 2.358608642578125 L 3.565975341796875 2.358608642578125 L 3.565975341796875 0.020533447265624893 M 4.5351540527343746 0.2997883300781252 L 4.15870751953125 0.2997883300781252 L 4.15870751953125 0.020533447265624893 L 5.26477587890625 0.020533447265624893 L 5.26477587890625 0.2997883300781252 L 4.8896982421874995 0.2997883300781252 L 4.8896982421874995 2.358608642578125 L 4.5351540527343746 2.358608642578125 L 4.5351540527343746 0.2997883300781252 M 5.5029638671875 0.020533447265624893 L 5.857508056640625 0.020533447265624893 L 5.857508056640625 2.0793537597656253 L 6.340728515625 2.0793537597656253 L 6.340728515625 2.358608642578125 L 5.5029638671875 2.358608642578125 L 5.5029638671875 0.020533447265624893 M 6.84174462890625 1.5797065429687502 L 6.37084423828125 0.020533447265624893 L 6.728126220703125 0.020533447265624893 L 7.0142255859375 1.138921875 L 7.03065234375 1.138921875 L 7.314013916015625 0.020533447265624893 L 7.669927001953125 0.020533447265624893 L 7.196288818359375 1.5797065429687502 L 7.196288818359375 2.358608642578125 L 6.84174462890625 2.358608642578125 L 6.84174462890625 1.5797065429687502" fill="#404040" fill-rule="nonzero"></path></g><g></g></g><defs><clipPath id="SvgjsClipPath93860"><path d=" M -5.031133398236257 -0.14425352446081874 h 4.631133398236257 v 2.6471156914997627 h -4.631133398236257 Z"></path></clipPath><clipPath id="SvgjsClipPath9385866aed91d-c8b4-4d90-b30a-8a2a76a38dec"><path d=" M -5.031133398236257 -0.14425352446081874 L -0.40000000000000036 -0.14425352446081874 L -0.40000000000000036 2.502862167038944 L -5.031133398236257 2.502862167038944 Z"></path></clipPath></defs></svg>